<?xml version="1.0" encoding="utf-8"?>
<!-- Generator: Adobe Illustrator 19.0.1, SVG Export Plug-In . SVG Version: 6.00 Build 0)  -->
<svg version="1.1"
	 id="svg1" xmlns:svg="http://www.w3.org/2000/svg" xmlns:sodipodi="http://sodipodi.sourceforge.net/DTD/sodipodi-0.dtd" xmlns:inkscape="http://www.inkscape.org/namespaces/inkscape" inkscape:export-ydpi="300" inkscape:export-xdpi="300" inkscape:export-filename="scheme_with_spins.png" sodipodi:docname="scheme_v2.svg" inkscape:version="1.3 (0e150ed6c4, 2023-07-21)"
	 xmlns="http://www.w3.org/2000/svg" xmlns:xlink="http://www.w3.org/1999/xlink" x="0px" y="0px" viewBox="1.9 1047.4 555.9 137.1"
	 style="enable-background:new 1.9 1047.4 555.9 137.1;" xml:space="preserve">
<style type="text/css">
	.st0{fill:#D6D6D6;}
	.st1{font-family:'ArialMT';}
	.st2{font-size:18.5038px;}
	.st3{font-size:12.0275px;}
	.st4{fill:none;stroke:#000000;stroke-width:0.5;stroke-linejoin:round;}
	.st5{fill:none;stroke:#000000;stroke-width:0.5;stroke-linejoin:round;stroke-dasharray:13.04,13.04;}
	.st6{fill:none;stroke:#000000;stroke-width:0.5;stroke-linejoin:round;stroke-dasharray:11.2455,11.2455;}
	.st7{fill:none;stroke:#000000;stroke-width:0.455;stroke-linejoin:round;}
	.st8{font-size:18.5039px;}
	.st9{fill:none;stroke:#000000;stroke-linejoin:round;}
	.st10{font-size:24px;}
</style>
<sodipodi:namedview  id="namedview1" inkscape:cy="-11.710937" inkscape:zoom="0.76851237" inkscape:cx="364.99087" bordercolor="#000000" pagecolor="#ffffff" borderopacity="0.25" showguides="true" inkscape:pageopacity="0.0" inkscape:current-layer="layer1" inkscape:showpageshadow="2" inkscape:window-x="-6" inkscape:window-maximized="1" inkscape:window-width="1440" inkscape:window-height="830" inkscape:deskcolor="#d1d1d1" inkscape:window-y="-6" inkscape:pagecheckerboard="0" inkscape:document-units="mm">
	</sodipodi:namedview>
<circle id="path1" class="st0" cx="21.5" cy="1066.1" r="13.2"/>
<text transform="matrix(1.0873 0 0 1 12.4463 1070.8589)" class="st1 st2">S</text>
<text transform="matrix(1.0873 0 0 1 25.8662 1074.5591)" class="st1 st3">0</text>
<circle id="path1-3" class="st0" cx="21.3" cy="1099" r="13.2"/>
<circle id="path1-2" class="st0" cx="21.5" cy="1131.9" r="13.2"/>
<circle id="path1-9" class="st0" cx="21.5" cy="1164.8" r="13.2"/>
<circle id="path1-34" class="st0" cx="60" cy="1066.7" r="13.2"/>
<text transform="matrix(1.0873 0 0 1 51.5053 1071.0151)" class="st1 st2">S</text>
<text transform="matrix(1.0873 0 0 1 64.9238 1074.7163)" class="st1 st3">1</text>
<circle id="path1-3-2" class="st0" cx="59.7" cy="1099.5" r="13.2"/>
<circle id="path1-2-5" class="st0" cx="60" cy="1132.4" r="13.2"/>
<circle id="path1-9-8" class="st0" cx="60" cy="1165.3" r="13.2"/>
<circle id="path1-342" class="st0" cx="98.7" cy="1066.3" r="13.2"/>
<text transform="matrix(1.0873 0 0 1 90.4561 1070.9634)" class="st1 st2">S</text>
<text transform="matrix(1.0873 0 0 1 103.8769 1074.6636)" class="st1 st3">2</text>
<circle id="path1-3-3" class="st0" cx="98.5" cy="1099.1" r="13.2"/>
<circle id="path1-2-6" class="st0" cx="98.7" cy="1132" r="13.2"/>
<circle id="path1-9-7" class="st0" cx="98.7" cy="1164.9" r="13.2"/>
<circle id="path1-8" class="st0" cx="137.7" cy="1066.2" r="13.2"/>
<text transform="matrix(1.0873 0 0 1 129.6894 1070.9077)" class="st1 st2">S</text>
<text transform="matrix(1.0873 0 0 1 143.1094 1074.6079)" class="st1 st3">3</text>
<text transform="matrix(0.9937 0 0 1 9.584 1103.8345)" class="st1 st2">S</text>
<text transform="matrix(0.9937 0 0 1 21.8486 1107.5376)" class="st1 st3">10</text>
<text transform="matrix(0.9937 0 0 1 47.6963 1103.647)" class="st1 st2">S</text>
<text transform="matrix(0.9937 0 0 1 59.9614 1107.3472)" class="st1 st3">11</text>
<text transform="matrix(0.9937 0 0 1 87.1074 1103.5122)" class="st1 st2">S</text>
<text transform="matrix(0.9937 0 0 1 99.3721 1107.2124)" class="st1 st3">12</text>
<text transform="matrix(0.9937 0 0 1 126.2114 1103.7231)" class="st1 st2">S</text>
<text transform="matrix(0.9937 0 0 1 138.4761 1107.4253)" class="st1 st3">13</text>
<circle id="path1-3-5" class="st0" cx="137.5" cy="1099.1" r="13.2"/>
<circle id="path1-2-4" class="st0" cx="137.7" cy="1132" r="13.2"/>
<circle id="path1-9-70" class="st0" cx="137.7" cy="1164.8" r="13.2"/>
<g id="rect9">
	<g>
		<polyline class="st4" points="2.4,1053.9 2.4,1047.9 8.4,1047.9 		"/>
		<line class="st5" x1="21.4" y1="1047.9" x2="67.1" y2="1047.9"/>
		<polyline class="st4" points="73.6,1047.9 79.6,1047.9 79.6,1053.9 		"/>
		<line class="st6" x1="79.6" y1="1065.1" x2="79.6" y2="1172"/>
		<polyline class="st4" points="79.6,1177.6 79.6,1183.6 73.6,1183.6 		"/>
		<line class="st5" x1="60.6" y1="1183.6" x2="14.9" y2="1183.6"/>
		<polyline class="st4" points="8.4,1183.6 2.4,1183.6 2.4,1177.6 		"/>
		<line class="st6" x1="2.4" y1="1166.3" x2="2.4" y2="1059.5"/>
	</g>
</g>
<circle id="path1-34-6" class="st0" cx="260" cy="1066.4" r="13.2"/>
<circle id="path1-3-2-8" class="st0" cx="259.7" cy="1099.2" r="13.2"/>
<circle id="path1-2-5-1" class="st0" cx="260" cy="1132.1" r="13.2"/>
<circle id="path1-9-8-6" class="st0" cx="260" cy="1165" r="13.2"/>
<circle id="path1-342-1" class="st0" cx="298.7" cy="1066" r="13.2"/>
<circle id="path1-3-3-6" class="st0" cx="298.5" cy="1098.8" r="13.2"/>
<circle id="path1-2-6-3" class="st0" cx="298.7" cy="1131.7" r="13.2"/>
<circle id="path1-9-7-1" class="st0" cx="298.7" cy="1164.6" r="13.2"/>
<circle id="path1-8-0" class="st0" cx="337.7" cy="1065.9" r="13.2"/>
<circle id="path1-3-5-7" class="st0" cx="337.5" cy="1098.8" r="13.2"/>
<circle id="path1-2-4-1" class="st0" cx="337.7" cy="1131.7" r="13.2"/>
<circle id="path1-9-70-6" class="st0" cx="337.7" cy="1164.5" r="13.2"/>
<g id="rect9-8">
	<g>
		<polyline class="st4" points="241.4,1054.1 241.4,1048.1 247.4,1048.1 		"/>
		<line class="st5" x1="260.4" y1="1048.1" x2="306.1" y2="1048.1"/>
		<polyline class="st4" points="312.6,1048.1 318.6,1048.1 318.6,1054.1 		"/>
		<line class="st6" x1="318.6" y1="1065.3" x2="318.6" y2="1172.2"/>
		<polyline class="st4" points="318.6,1177.8 318.6,1183.8 312.6,1183.8 		"/>
		<line class="st5" x1="299.6" y1="1183.8" x2="253.9" y2="1183.8"/>
		<polyline class="st4" points="247.4,1183.8 241.4,1183.8 241.4,1177.8 		"/>
		<line class="st6" x1="241.4" y1="1166.5" x2="241.4" y2="1059.7"/>
	</g>
</g>
<circle id="path1-342-2" class="st0" cx="498.7" cy="1066.6" r="13.2"/>
<circle id="path1-3-3-3" class="st0" cx="498.4" cy="1099.5" r="13.2"/>
<circle id="path1-2-6-9" class="st0" cx="498.7" cy="1132.4" r="13.2"/>
<circle id="path1-9-7-8" class="st0" cx="498.7" cy="1165.2" r="13.2"/>
<circle id="path1-8-7" class="st0" cx="537.7" cy="1066.5" r="13.2"/>
<circle id="path1-3-5-74" class="st0" cx="537.4" cy="1099.4" r="13.2"/>
<circle id="path1-2-4-6" class="st0" cx="537.7" cy="1132.3" r="13.2"/>
<circle id="path1-9-70-3" class="st0" cx="537.7" cy="1165.2" r="13.2"/>
<g id="rect9-1">
	<g>
		<polyline class="st4" points="480.1,1054.3 480.1,1048.3 486.1,1048.3 		"/>
		<line class="st5" x1="499.1" y1="1048.3" x2="544.8" y2="1048.3"/>
		<polyline class="st4" points="551.3,1048.3 557.3,1048.3 557.3,1054.3 		"/>
		<line class="st6" x1="557.3" y1="1065.5" x2="557.3" y2="1172.4"/>
		<polyline class="st4" points="557.3,1178 557.3,1184 551.3,1184 		"/>
		<line class="st5" x1="538.3" y1="1184" x2="492.6" y2="1184"/>
		<polyline class="st4" points="486.1,1184 480.1,1184 480.1,1178 		"/>
		<line class="st6" x1="480.1" y1="1166.7" x2="480.1" y2="1059.9"/>
	</g>
</g>
<path id="path135" d="M196,1118.3l-11.2,3.2v-6.4L196,1118.3z"/>
<path id="path10" d="M188.6,1118.3"/>
<path id="path135-1" d="M396,1118l-11.2,3.2v-6.4L396,1118z"/>
<path id="path10-1" d="M388.6,1118"/>
<path id="path11" class="st7" d="M34.7,1066.1h11.9"/>
<path id="path12" class="st7" d="M59.9,1079.8v6.6"/>
<path id="path13" class="st7" d="M59.9,1112.7v6.5"/>
<path id="path14" class="st7" d="M59.9,1145.6v6.5"/>
<path id="path15" class="st7" d="M34.5,1100.5h12.1"/>
<path id="path16" class="st7" d="M34.7,1131.9h12.1"/>
<path id="path17" class="st7" d="M34.7,1164.8h12.1"/>
<path id="path11-4" class="st7" d="M273.7,1065.6h11.9"/>
<path id="path12-9" class="st7" d="M298.9,1079.3v6.6"/>
<path id="path13-5" class="st7" d="M298.9,1112.2v6.5"/>
<path id="path14-3" class="st7" d="M298.9,1145.1v6.5"/>
<path id="path15-5" class="st7" d="M273.5,1100h12.1"/>
<path id="path16-7" class="st7" d="M273.7,1131.4h12.1"/>
<path id="path17-4" class="st7" d="M273.7,1164.3h12.1"/>
<path id="path11-47" class="st7" d="M512.1,1066H524"/>
<path id="path12-2" class="st7" d="M537.2,1079.7v6.6"/>
<path id="path13-8" class="st7" d="M537.2,1112.6v6.5"/>
<path id="path14-1" class="st7" d="M537.2,1145.5v6.5"/>
<path id="path15-9" class="st7" d="M511.8,1100.4h12.1"/>
<path id="path16-8" class="st7" d="M512.1,1131.8h12.1"/>
<path id="path17-43" class="st7" d="M512.1,1164.7h12.1"/>
<text transform="matrix(0.9863 0 0 1 10.4438 1137.2163)" class="st1 st8">S</text>
<text transform="matrix(0.9863 0 0 1 22.6157 1140.9185)" class="st1 st3">2</text>
<text transform="matrix(0.9863 0 0 1 29.2139 1140.9185)" class="st1 st3">0</text>
<text transform="matrix(0.9863 0 0 1 48.27 1137.0298)" class="st1 st8">S</text>
<text transform="matrix(0.9863 0 0 1 60.4424 1140.73)" class="st1 st3">2</text>
<text transform="matrix(0.9863 0 0 1 67.0391 1140.73)" class="st1 st3">1</text>
<text transform="matrix(0.9863 0 0 1 87.3862 1136.8931)" class="st1 st8">S</text>
<text transform="matrix(0.9863 0 0 1 99.5571 1140.5962)" class="st1 st3">2</text>
<text transform="matrix(0.9863 0 0 1 106.1553 1140.5962)" class="st1 st3">2</text>
<text transform="matrix(0.9863 0 0 1 126.1943 1137.1079)" class="st1 st8">S</text>
<text transform="matrix(0.9863 0 0 1 138.3677 1140.8081)" class="st1 st3">2</text>
<text transform="matrix(0.9863 0 0 1 144.9634 1140.8081)" class="st1 st3">3</text>
<text transform="matrix(0.9863 0 0 1 10.1601 1169.811)" class="st1 st8">S</text>
<text transform="matrix(0.9863 0 0 1 22.3325 1173.5142)" class="st1 st3">3</text>
<text transform="matrix(0.9863 0 0 1 28.9312 1173.5142)" class="st1 st3">0</text>
<text transform="matrix(0.9863 0 0 1 47.9849 1169.6255)" class="st1 st8">S</text>
<text transform="matrix(0.9863 0 0 1 60.1587 1173.3247)" class="st1 st3">3</text>
<text transform="matrix(0.9863 0 0 1 66.7559 1173.3247)" class="st1 st3">1</text>
<text transform="matrix(0.9863 0 0 1 87.1016 1169.4907)" class="st1 st8">S</text>
<text transform="matrix(0.9863 0 0 1 99.2749 1173.188)" class="st1 st3">3</text>
<text transform="matrix(0.9863 0 0 1 105.8706 1173.188)" class="st1 st3">2</text>
<text transform="matrix(0.9863 0 0 1 125.9107 1169.7036)" class="st1 st8">S</text>
<text transform="matrix(0.9863 0 0 1 138.083 1173.4028)" class="st1 st3">3</text>
<text transform="matrix(0.9863 0 0 1 144.6802 1173.4028)" class="st1 st3">3</text>
<text transform="matrix(1.0873 0 0 1 251.1694 1071.0972)" class="st1 st2">S</text>
<text transform="matrix(1.0873 0 0 1 264.5898 1074.7974)" class="st1 st3">1</text>
<text transform="matrix(1.0873 0 0 1 290.1211 1071.0444)" class="st1 st2">S</text>
<text transform="matrix(1.0873 0 0 1 303.542 1074.7456)" class="st1 st3">2</text>
<text transform="matrix(1.0873 0 0 1 329.3555 1070.9897)" class="st1 st2">S</text>
<text transform="matrix(1.0873 0 0 1 342.7754 1074.6899)" class="st1 st3">3</text>
<text transform="matrix(0.9937 0 0 1 247.3608 1103.729)" class="st1 st2">S</text>
<text transform="matrix(0.9937 0 0 1 259.6265 1107.4292)" class="st1 st3">11</text>
<text transform="matrix(0.9937 0 0 1 286.7734 1103.5942)" class="st1 st2">S</text>
<text transform="matrix(0.9937 0 0 1 299.0381 1107.2944)" class="st1 st3">12</text>
<text transform="matrix(0.9937 0 0 1 325.876 1103.8052)" class="st1 st2">S</text>
<text transform="matrix(0.9937 0 0 1 338.1406 1107.5083)" class="st1 st3">13</text>
<text transform="matrix(0.9937 0 0 1 125.5947 1103.8345)" class="st1 st2">S</text>
<text transform="matrix(0.9937 0 0 1 137.8594 1107.5376)" class="st1 st3">13</text>
<text transform="matrix(0.9863 0 0 1 247.9365 1137.1118)" class="st1 st8">S</text>
<text transform="matrix(0.9863 0 0 1 260.1084 1140.812)" class="st1 st3">2</text>
<text transform="matrix(0.9863 0 0 1 266.7061 1140.812)" class="st1 st3">1</text>
<text transform="matrix(0.9863 0 0 1 287.0518 1136.9771)" class="st1 st8">S</text>
<text transform="matrix(0.9863 0 0 1 299.2246 1140.6782)" class="st1 st3">2</text>
<text transform="matrix(0.9863 0 0 1 305.8213 1140.6782)" class="st1 st3">2</text>
<text transform="matrix(0.9863 0 0 1 325.8604 1137.1899)" class="st1 st8">S</text>
<text transform="matrix(0.9863 0 0 1 338.0332 1140.8901)" class="st1 st3">2</text>
<text transform="matrix(0.9863 0 0 1 344.6309 1140.8901)" class="st1 st3">3</text>
<text transform="matrix(0.9863 0 0 1 247.6514 1169.7065)" class="st1 st8">S</text>
<text transform="matrix(0.9863 0 0 1 259.8232 1173.4067)" class="st1 st3">3</text>
<text transform="matrix(0.9863 0 0 1 266.4204 1173.4067)" class="st1 st3">1</text>
<text transform="matrix(0.9863 0 0 1 286.7666 1169.5728)" class="st1 st8">S</text>
<text transform="matrix(0.9863 0 0 1 298.9395 1173.272)" class="st1 st3">3</text>
<text transform="matrix(0.9863 0 0 1 305.5361 1173.272)" class="st1 st3">2</text>
<text transform="matrix(0.9863 0 0 1 325.5762 1169.7847)" class="st1 st8">S</text>
<text transform="matrix(0.9863 0 0 1 337.748 1173.4849)" class="st1 st3">3</text>
<text transform="matrix(0.9863 0 0 1 344.3457 1173.4849)" class="st1 st3">3</text>
<text transform="matrix(1.0873 0 0 1 490.4307 1071.105)" class="st1 st2">S</text>
<text transform="matrix(1.0873 0 0 1 503.8516 1074.8052)" class="st1 st3">2</text>
<text transform="matrix(1.0873 0 0 1 529.665 1071.0493)" class="st1 st2">S</text>
<text transform="matrix(1.0873 0 0 1 543.085 1074.7495)" class="st1 st3">3</text>
<text transform="matrix(0.9937 0 0 1 487.083 1103.6538)" class="st1 st2">S</text>
<text transform="matrix(0.9937 0 0 1 499.3477 1107.354)" class="st1 st3">12</text>
<text transform="matrix(0.9937 0 0 1 526.1865 1103.8677)" class="st1 st2">S</text>
<text transform="matrix(0.9937 0 0 1 538.4512 1107.5679)" class="st1 st3">13</text>
<text transform="matrix(0.9863 0 0 1 487.3613 1137.0366)" class="st1 st8">S</text>
<text transform="matrix(0.9863 0 0 1 499.5341 1140.7368)" class="st1 st3">2</text>
<text transform="matrix(0.9863 0 0 1 506.1318 1140.7368)" class="st1 st3">2</text>
<text transform="matrix(0.9863 0 0 1 526.1709 1137.2485)" class="st1 st8">S</text>
<text transform="matrix(0.9863 0 0 1 538.3438 1140.9487)" class="st1 st3">2</text>
<text transform="matrix(0.9863 0 0 1 544.9404 1140.9487)" class="st1 st3">3</text>
<text transform="matrix(0.9863 0 0 1 487.0771 1169.6313)" class="st1 st8">S</text>
<text transform="matrix(0.9863 0 0 1 499.249 1173.3315)" class="st1 st3">3</text>
<text transform="matrix(0.9863 0 0 1 505.8467 1173.3315)" class="st1 st3">2</text>
<text transform="matrix(0.9863 0 0 1 525.8857 1169.8433)" class="st1 st8">S</text>
<text transform="matrix(0.9863 0 0 1 538.0586 1173.5435)" class="st1 st3">3</text>
<text transform="matrix(0.9863 0 0 1 544.6553 1173.5435)" class="st1 st3">3</text>
<rect id="rect9-8_1_" x="201.7" y="1048.1" class="st4" width="39.7" height="135.7"/>
<line class="st9" x1="184.9" y1="1118" x2="153.3" y2="1118"/>
<line class="st9" x1="384.9" y1="1118" x2="353.3" y2="1118"/>
<rect id="rect9-1_1_" x="402.9" y="1048.3" class="st4" width="77.2" height="135.7"/>
<text transform="matrix(4.489659e-011 -1 1 4.489659e-011 229.5144 1168.5094)" class="st1 st10">G-тензор</text>
<text transform="matrix(4.489659e-011 -1 1 4.489659e-011 449.1809 1167.8434)" class="st1 st10">G-тензор</text>
</svg>
